<svg id="visual" viewBox="0 0 960 540" width="960" height="540" xmlns="http://www.w3.org/2000/svg" xmlns:xlink="http://www.w3.org/1999/xlink" version="1.1"><rect x="0" y="0" width="960" height="540" fill="#000000"></rect><path d="M745 540L750.3 527.2C755.7 514.3 766.3 488.7 758.7 463C751 437.3 725 411.7 683.2 386C641.3 360.3 583.7 334.7 546.5 308.8C509.3 283 492.7 257 518.2 231.2C543.7 205.3 611.3 179.7 629.7 154C648 128.3 617 102.7 618.3 77C619.7 51.3 653.3 25.7 670.2 12.8L687 0L960 0L960 12.8C960 25.7 960 51.3 960 77C960 102.7 960 128.3 960 154C960 179.7 960 205.3 960 231.2C960 257 960 283 960 308.8C960 334.7 960 360.3 960 386C960 411.7 960 437.3 960 463C960 488.7 960 514.3 960 527.2L960 540Z" fill="#ff6500" stroke-linecap="round" stroke-linejoin="miter"></path></svg>