<svg id="visual" viewBox="0 0 900 600" width="900" height="600" xmlns="http://www.w3.org/2000/svg" xmlns:xlink="http://www.w3.org/1999/xlink" version="1.1"><rect x="0" y="0" width="900" height="600" fill="#000000"></rect><path d="M174 0L174.3 14.3C174.7 28.7 175.3 57.3 200.8 85.8C226.3 114.3 276.7 142.7 296.3 171.2C316 199.7 305 228.3 271 257C237 285.7 180 314.3 155.2 343C130.3 371.7 137.7 400.3 139.8 428.8C142 457.3 139 485.7 168.3 514.2C197.7 542.7 259.3 571.3 290.2 585.7L321 600L0 600L0 585.7C0 571.3 0 542.7 0 514.2C0 485.7 0 457.3 0 428.8C0 400.3 0 371.7 0 343C0 314.3 0 285.7 0 257C0 228.3 0 199.7 0 171.2C0 142.7 0 114.3 0 85.8C0 57.3 0 28.7 0 14.3L0 0Z" fill="#F7770F" stroke-linecap="round" stroke-linejoin="miter"></path></svg>