<svg id="visual" viewBox="0 0 900 900" width="900" height="900" xmlns="http://www.w3.org/2000/svg" xmlns:xlink="http://www.w3.org/1999/xlink" version="1.1"><rect x="0" y="0" width="900" height="900" fill="#000000"></rect><path d="M698 900L703 878.5C708 857 718 814 710.8 771.2C703.7 728.3 679.3 685.7 640.2 642.8C601 600 547 557 512.2 514.2C477.3 471.3 461.7 428.7 485.7 385.8C509.7 343 573.3 300 590.5 257.2C607.7 214.3 578.3 171.7 579.5 128.8C580.7 86 612.3 43 628.2 21.5L644 0L900 0L900 21.5C900 43 900 86 900 128.8C900 171.7 900 214.3 900 257.2C900 300 900 343 900 385.8C900 428.7 900 471.3 900 514.2C900 557 900 600 900 642.8C900 685.7 900 728.3 900 771.2C900 814 900 857 900 878.5L900 900Z" fill="#ff6500" stroke-linecap="round" stroke-linejoin="miter"></path></svg>