<svg id="visual" viewBox="0 0 900 600" width="900" height="600" xmlns="http://www.w3.org/2000/svg" xmlns:xlink="http://www.w3.org/1999/xlink" version="1.1"><rect x="0" y="0" width="900" height="600" fill="#000000"></rect><path d="M750 600L757.5 585.7C765 571.3 780 542.7 782.8 514.2C785.7 485.7 776.3 457.3 761 428.8C745.7 400.3 724.3 371.7 731 343C737.7 314.3 772.3 285.7 768 257C763.7 228.3 720.3 199.7 719.8 171.2C719.3 142.7 761.7 114.3 773.3 85.8C785 57.3 766 28.7 756.5 14.3L747 0L900 0L900 14.3C900 28.7 900 57.3 900 85.8C900 114.3 900 142.7 900 171.2C900 199.7 900 228.3 900 257C900 285.7 900 314.3 900 343C900 371.7 900 400.3 900 428.8C900 457.3 900 485.7 900 514.2C900 542.7 900 571.3 900 585.7L900 600Z" fill="#ff6500" stroke-linecap="round" stroke-linejoin="miter"></path></svg>